<svg width="29" height="29" viewBox="0 0 29 29" fill="none" xmlns="http://www.w3.org/2000/svg">
<g clip-path="url(#clip0_998_1660)">
<path d="M15.0151 0.0175781C20.4424 0.289465 25.0718 3.58623 27.2505 8.25488L27.4536 8.71094C26.2137 10.8537 24.7087 12.7933 23.062 14.5322V17.5176C25.0059 15.6867 26.81 13.617 28.2749 11.3184L28.3462 11.6787C28.5022 12.5241 28.5835 13.3957 28.5835 14.2861C28.5835 22.1763 22.183 28.5722 14.2876 28.5723C11.9738 28.5723 9.78852 28.0231 7.85498 27.0479C9.78123 26.3536 12.7863 24.9639 16.0278 22.9189C13.9561 23.1937 12.5122 22.9623 12.0493 22.8125C9.81659 24.0153 7.78413 24.8826 6.23193 25.4199L5.59619 25.6299C3.82896 24.2756 2.38712 22.5181 1.40869 20.4951C2.51587 19.5914 4.03251 18.1685 5.6665 16.3467C5.39777 15.0534 5.42896 13.8696 5.47803 13.4395C4.22849 14.9678 2.82427 16.456 1.26709 17.8154L0.590332 18.3896C0.200984 17.0899 -0.00829254 15.7125 -0.00830078 14.2861C-0.00830078 6.89375 5.60981 0.812204 12.812 0.0742188C12.4294 1.53931 11.5335 3.84363 10.1274 6.45996C11.0641 5.90337 12.4159 5.63428 12.9751 5.56934C13.8163 3.79611 14.5219 1.93488 15.0151 0.0175781ZM6.97412 26.5645H6.9751H6.97412ZM6.1333 26.0225H6.13428H6.1333Z" fill="black"/>
<path d="M6.51562 14.3225C6.51562 18.6131 9.99613 22.0913 14.2896 22.0913C16.0864 22.0913 17.7409 21.4821 19.0574 20.4591V20.5883C19.0574 21.4184 19.7304 22.0913 20.5605 22.0913C21.3906 22.0913 22.0635 21.4184 22.0635 20.5883V14.3225C22.0635 10.0319 18.583 6.55371 14.2896 6.55371C9.99613 6.55371 6.51562 10.0319 6.51562 14.3225Z" fill="white"/>
<path d="M14.2897 -0.000976562C13.7915 -0.000976562 13.2993 0.0244879 12.8143 0.0741856C12.4316 1.5393 11.5351 3.84321 10.129 6.45961C11.0658 5.90285 12.4181 5.63387 12.9772 5.56897C13.8184 3.79574 14.5241 1.93452 15.0173 0.0172064C14.7763 0.00513264 14.5337 -0.000976562 14.2897 -0.000976562Z" fill="#D9D9D9"/>
<path d="M0.592285 18.3895C0.810347 19.1174 1.08492 19.8209 1.41091 20.4949C2.51809 19.5912 4.03413 18.1681 5.66812 16.3463C5.39937 15.053 5.43033 13.8693 5.47939 13.4391C4.05137 15.1858 2.42198 16.8799 0.592285 18.3895Z" fill="#D9D9D9"/>
<path d="M5.59822 25.6295C6.30226 26.1691 7.05798 26.6446 7.85667 27.0475C9.78295 26.3532 12.7879 24.9631 16.0296 22.9181C13.9579 23.1929 12.5141 22.962 12.0512 22.8123C9.49924 24.187 7.20879 25.1229 5.59822 25.6295Z" fill="#D9D9D9"/>
<path d="M28.2767 11.3175C28.0857 10.4141 27.8093 9.54207 27.4562 8.71042C26.2162 10.8534 24.711 12.7929 23.0642 14.5319V17.5169C25.0082 15.686 26.8118 13.6163 28.2767 11.3175Z" fill="#D9D9D9"/>
<ellipse cx="14.2925" cy="14.2848" rx="5.10065" ry="5.09729" fill="#80CB51"/>
<path d="M14.2897 -0.000976562C13.7915 -0.000976562 13.2993 0.0244879 12.8143 0.0741856C12.4316 1.5393 11.5351 3.84321 10.129 6.45961C11.0658 5.90285 12.4181 5.63387 12.9772 5.56897C13.8184 3.79574 14.5241 1.93452 15.0173 0.0172064C14.7763 0.00513264 14.5337 -0.000976562 14.2897 -0.000976562Z" fill="white"/>
<path d="M0.592285 18.3895C0.810347 19.1174 1.08492 19.8209 1.41091 20.4949C2.51809 19.5912 4.03413 18.1681 5.66812 16.3463C5.39937 15.053 5.43033 13.8693 5.47939 13.4391C4.05137 15.1858 2.42198 16.8799 0.592285 18.3895Z" fill="white"/>
<path d="M5.59822 25.6295C6.30226 26.1691 7.05798 26.6446 7.85667 27.0475C9.78295 26.3532 12.7879 24.9631 16.0296 22.9181C13.9579 23.1929 12.5141 22.962 12.0512 22.8123C9.49924 24.187 7.20879 25.1229 5.59822 25.6295Z" fill="white"/>
<path d="M28.2767 11.3175C28.0857 10.4141 27.8093 9.54207 27.4562 8.71042C26.2162 10.8534 24.711 12.7929 23.0642 14.5319V17.5169C25.0082 15.686 26.8118 13.6163 28.2767 11.3175Z" fill="white"/>
</g>
<defs>
<clipPath id="clip0_998_1660">
<rect width="28.5792" height="28.5792" fill="white"/>
</clipPath>
</defs>
</svg>
